<mxfile host="Electron" modified="2023-06-25T08:12:58.151Z" agent="Mozilla/5.0 (Windows NT 10.0; Win64; x64) AppleWebKit/537.36 (KHTML, like Gecko) draw.io/21.2.8 Chrome/112.0.5615.165 Electron/24.2.0 Safari/537.36" etag="PQzzYiS6jncca9_jGGs2" version="21.2.8" type="device">
  <diagram name="Page-1" id="ueVJuSLTtOk58KGuFALB">
    <mxGraphModel dx="1114" dy="733" grid="1" gridSize="10" guides="1" tooltips="1" connect="1" arrows="1" fold="1" page="1" pageScale="1" pageWidth="850" pageHeight="1100" math="0" shadow="0">
      <root>
        <mxCell id="0" />
        <mxCell id="1" parent="0" />
        <mxCell id="zD9h97p-985Ib3SUe7in-34" value="" style="endArrow=none;html=1;rounded=0;exitX=1;exitY=0.5;exitDx=0;exitDy=0;entryX=0.5;entryY=0;entryDx=0;entryDy=0;" edge="1" parent="1" source="oJbWSEmWCzC-VZwffRQP-50" target="zD9h97p-985Ib3SUe7in-63">
          <mxGeometry relative="1" as="geometry">
            <mxPoint x="360" y="940" as="sourcePoint" />
            <mxPoint x="440" y="890" as="targetPoint" />
            <Array as="points">
              <mxPoint x="410" y="700" />
            </Array>
          </mxGeometry>
        </mxCell>
        <mxCell id="oJbWSEmWCzC-VZwffRQP-2" value="User" style="html=1;dashed=0;whiteSpace=wrap;" parent="1" vertex="1">
          <mxGeometry x="230" y="460" width="100" height="50" as="geometry" />
        </mxCell>
        <mxCell id="oJbWSEmWCzC-VZwffRQP-4" value="" style="endArrow=none;html=1;rounded=0;exitX=0.5;exitY=0;exitDx=0;exitDy=0;" parent="1" source="oJbWSEmWCzC-VZwffRQP-2" target="oJbWSEmWCzC-VZwffRQP-5" edge="1">
          <mxGeometry relative="1" as="geometry">
            <mxPoint x="320" y="260" as="sourcePoint" />
            <mxPoint x="400" y="100" as="targetPoint" />
            <Array as="points" />
          </mxGeometry>
        </mxCell>
        <mxCell id="oJbWSEmWCzC-VZwffRQP-5" value="name" style="ellipse;whiteSpace=wrap;html=1;align=center;" parent="1" vertex="1">
          <mxGeometry x="90" y="290" width="100" height="40" as="geometry" />
        </mxCell>
        <mxCell id="oJbWSEmWCzC-VZwffRQP-6" value="user_id" style="ellipse;whiteSpace=wrap;html=1;align=center;" parent="1" vertex="1">
          <mxGeometry x="40" y="350" width="100" height="40" as="geometry" />
        </mxCell>
        <mxCell id="oJbWSEmWCzC-VZwffRQP-7" value="password" style="ellipse;whiteSpace=wrap;html=1;align=center;" parent="1" vertex="1">
          <mxGeometry x="10" y="405" width="100" height="40" as="geometry" />
        </mxCell>
        <mxCell id="oJbWSEmWCzC-VZwffRQP-8" value="" style="endArrow=none;html=1;rounded=0;exitX=0.978;exitY=0.759;exitDx=0;exitDy=0;entryX=0;entryY=0.5;entryDx=0;entryDy=0;exitPerimeter=0;" parent="1" source="oJbWSEmWCzC-VZwffRQP-6" target="oJbWSEmWCzC-VZwffRQP-2" edge="1">
          <mxGeometry relative="1" as="geometry">
            <mxPoint x="320" y="140" as="sourcePoint" />
            <mxPoint x="230" y="425" as="targetPoint" />
          </mxGeometry>
        </mxCell>
        <mxCell id="oJbWSEmWCzC-VZwffRQP-9" value="" style="endArrow=none;html=1;rounded=0;entryX=1;entryY=0.5;entryDx=0;entryDy=0;exitX=0;exitY=0.5;exitDx=0;exitDy=0;" parent="1" source="oJbWSEmWCzC-VZwffRQP-2" target="oJbWSEmWCzC-VZwffRQP-7" edge="1">
          <mxGeometry relative="1" as="geometry">
            <mxPoint x="230" y="490" as="sourcePoint" />
            <mxPoint x="480" y="140" as="targetPoint" />
          </mxGeometry>
        </mxCell>
        <mxCell id="oJbWSEmWCzC-VZwffRQP-10" value="Food Item" style="whiteSpace=wrap;html=1;align=center;" parent="1" vertex="1">
          <mxGeometry x="160" y="905" width="100" height="50" as="geometry" />
        </mxCell>
        <mxCell id="oJbWSEmWCzC-VZwffRQP-16" value="food_id" style="ellipse;whiteSpace=wrap;html=1;align=center;" parent="1" vertex="1">
          <mxGeometry x="10" y="960" width="100" height="40" as="geometry" />
        </mxCell>
        <mxCell id="oJbWSEmWCzC-VZwffRQP-17" value="price" style="ellipse;whiteSpace=wrap;html=1;align=center;" parent="1" vertex="1">
          <mxGeometry y="900" width="100" height="40" as="geometry" />
        </mxCell>
        <mxCell id="oJbWSEmWCzC-VZwffRQP-18" value="rating" style="ellipse;whiteSpace=wrap;html=1;align=center;" parent="1" vertex="1">
          <mxGeometry x="10" y="850" width="100" height="40" as="geometry" />
        </mxCell>
        <mxCell id="oJbWSEmWCzC-VZwffRQP-19" value="description" style="ellipse;whiteSpace=wrap;html=1;align=center;" parent="1" vertex="1">
          <mxGeometry x="160" y="770" width="100" height="40" as="geometry" />
        </mxCell>
        <mxCell id="oJbWSEmWCzC-VZwffRQP-20" value="name" style="ellipse;whiteSpace=wrap;html=1;align=center;" parent="1" vertex="1">
          <mxGeometry x="110" y="1000" width="100" height="40" as="geometry" />
        </mxCell>
        <mxCell id="oJbWSEmWCzC-VZwffRQP-22" value="category" style="ellipse;whiteSpace=wrap;html=1;align=center;" parent="1" vertex="1">
          <mxGeometry x="60" y="790" width="100" height="40" as="geometry" />
        </mxCell>
        <mxCell id="oJbWSEmWCzC-VZwffRQP-23" value="image_url" style="ellipse;whiteSpace=wrap;html=1;align=center;" parent="1" vertex="1">
          <mxGeometry x="200" y="1040" width="100" height="40" as="geometry" />
        </mxCell>
        <mxCell id="oJbWSEmWCzC-VZwffRQP-26" value="dietary" style="ellipse;whiteSpace=wrap;html=1;align=center;" parent="1" vertex="1">
          <mxGeometry x="270" y="1000" width="100" height="40" as="geometry" />
        </mxCell>
        <mxCell id="oJbWSEmWCzC-VZwffRQP-32" value="" style="endArrow=none;html=1;rounded=0;exitX=1;exitY=0.5;exitDx=0;exitDy=0;entryX=0;entryY=0.5;entryDx=0;entryDy=0;" parent="1" source="oJbWSEmWCzC-VZwffRQP-18" target="oJbWSEmWCzC-VZwffRQP-10" edge="1">
          <mxGeometry relative="1" as="geometry">
            <mxPoint x="140" y="550" as="sourcePoint" />
            <mxPoint x="300" y="550" as="targetPoint" />
          </mxGeometry>
        </mxCell>
        <mxCell id="oJbWSEmWCzC-VZwffRQP-33" value="" style="endArrow=none;html=1;rounded=0;exitX=0.5;exitY=1;exitDx=0;exitDy=0;entryX=0.5;entryY=0;entryDx=0;entryDy=0;" parent="1" source="oJbWSEmWCzC-VZwffRQP-22" target="oJbWSEmWCzC-VZwffRQP-10" edge="1">
          <mxGeometry relative="1" as="geometry">
            <mxPoint x="130" y="490" as="sourcePoint" />
            <mxPoint x="186" y="870" as="targetPoint" />
          </mxGeometry>
        </mxCell>
        <mxCell id="oJbWSEmWCzC-VZwffRQP-35" value="" style="endArrow=none;html=1;rounded=0;exitX=0.458;exitY=1.015;exitDx=0;exitDy=0;exitPerimeter=0;entryX=0.5;entryY=0;entryDx=0;entryDy=0;" parent="1" source="oJbWSEmWCzC-VZwffRQP-19" target="oJbWSEmWCzC-VZwffRQP-10" edge="1">
          <mxGeometry relative="1" as="geometry">
            <mxPoint x="180" y="480" as="sourcePoint" />
            <mxPoint x="240" y="860" as="targetPoint" />
          </mxGeometry>
        </mxCell>
        <mxCell id="oJbWSEmWCzC-VZwffRQP-37" value="" style="endArrow=none;html=1;rounded=0;exitX=0.623;exitY=0.074;exitDx=0;exitDy=0;exitPerimeter=0;entryX=0.5;entryY=1;entryDx=0;entryDy=0;" parent="1" source="oJbWSEmWCzC-VZwffRQP-20" target="oJbWSEmWCzC-VZwffRQP-10" edge="1">
          <mxGeometry relative="1" as="geometry">
            <mxPoint x="296" y="491" as="sourcePoint" />
            <mxPoint x="170" y="920" as="targetPoint" />
          </mxGeometry>
        </mxCell>
        <mxCell id="oJbWSEmWCzC-VZwffRQP-38" value="" style="endArrow=none;html=1;rounded=0;exitX=1.009;exitY=0.424;exitDx=0;exitDy=0;entryX=0;entryY=0.5;entryDx=0;entryDy=0;exitPerimeter=0;" parent="1" source="oJbWSEmWCzC-VZwffRQP-17" target="oJbWSEmWCzC-VZwffRQP-10" edge="1">
          <mxGeometry relative="1" as="geometry">
            <mxPoint x="120" y="540" as="sourcePoint" />
            <mxPoint x="190" y="576" as="targetPoint" />
          </mxGeometry>
        </mxCell>
        <mxCell id="oJbWSEmWCzC-VZwffRQP-39" value="" style="endArrow=none;html=1;rounded=0;exitX=1;exitY=0;exitDx=0;exitDy=0;entryX=0;entryY=0.5;entryDx=0;entryDy=0;" parent="1" source="oJbWSEmWCzC-VZwffRQP-16" target="oJbWSEmWCzC-VZwffRQP-10" edge="1">
          <mxGeometry relative="1" as="geometry">
            <mxPoint x="130" y="550" as="sourcePoint" />
            <mxPoint x="200" y="586" as="targetPoint" />
          </mxGeometry>
        </mxCell>
        <mxCell id="oJbWSEmWCzC-VZwffRQP-40" value="" style="endArrow=none;html=1;rounded=0;entryX=0.5;entryY=0;entryDx=0;entryDy=0;exitX=0.5;exitY=1;exitDx=0;exitDy=0;" parent="1" source="oJbWSEmWCzC-VZwffRQP-10" target="oJbWSEmWCzC-VZwffRQP-23" edge="1">
          <mxGeometry relative="1" as="geometry">
            <mxPoint x="220" y="920" as="sourcePoint" />
            <mxPoint x="210" y="596" as="targetPoint" />
          </mxGeometry>
        </mxCell>
        <mxCell id="oJbWSEmWCzC-VZwffRQP-41" value="" style="endArrow=none;html=1;rounded=0;exitX=0.5;exitY=1;exitDx=0;exitDy=0;" parent="1" source="oJbWSEmWCzC-VZwffRQP-10" target="oJbWSEmWCzC-VZwffRQP-26" edge="1">
          <mxGeometry relative="1" as="geometry">
            <mxPoint x="237" y="593" as="sourcePoint" />
            <mxPoint x="220" y="650" as="targetPoint" />
          </mxGeometry>
        </mxCell>
        <mxCell id="oJbWSEmWCzC-VZwffRQP-44" value="Cart Item" style="whiteSpace=wrap;html=1;align=center;" parent="1" vertex="1">
          <mxGeometry x="590" y="910" width="100" height="40" as="geometry" />
        </mxCell>
        <mxCell id="oJbWSEmWCzC-VZwffRQP-45" value="order_id" style="ellipse;whiteSpace=wrap;html=1;align=center;" parent="1" vertex="1">
          <mxGeometry x="740" y="960" width="100" height="40" as="geometry" />
        </mxCell>
        <mxCell id="oJbWSEmWCzC-VZwffRQP-46" value="cart_id" style="ellipse;whiteSpace=wrap;html=1;align=center;" parent="1" vertex="1">
          <mxGeometry x="730" y="860" width="100" height="40" as="geometry" />
        </mxCell>
        <mxCell id="oJbWSEmWCzC-VZwffRQP-47" value="cart_Item_id" style="ellipse;whiteSpace=wrap;html=1;align=center;" parent="1" vertex="1">
          <mxGeometry x="490" y="1010" width="100" height="40" as="geometry" />
        </mxCell>
        <mxCell id="oJbWSEmWCzC-VZwffRQP-48" value="quantity" style="ellipse;whiteSpace=wrap;html=1;align=center;" parent="1" vertex="1">
          <mxGeometry x="590" y="1030" width="100" height="40" as="geometry" />
        </mxCell>
        <mxCell id="oJbWSEmWCzC-VZwffRQP-49" value="food_id" style="ellipse;whiteSpace=wrap;html=1;align=center;" parent="1" vertex="1">
          <mxGeometry x="700" y="1020" width="100" height="40" as="geometry" />
        </mxCell>
        <mxCell id="oJbWSEmWCzC-VZwffRQP-50" value="Cart" style="whiteSpace=wrap;html=1;align=center;" parent="1" vertex="1">
          <mxGeometry x="230" y="680" width="100" height="40" as="geometry" />
        </mxCell>
        <mxCell id="oJbWSEmWCzC-VZwffRQP-51" value="cart_id" style="ellipse;whiteSpace=wrap;html=1;align=center;" parent="1" vertex="1">
          <mxGeometry x="60" y="690" width="100" height="40" as="geometry" />
        </mxCell>
        <mxCell id="oJbWSEmWCzC-VZwffRQP-52" value="customer_id" style="ellipse;whiteSpace=wrap;html=1;align=center;" parent="1" vertex="1">
          <mxGeometry x="50" y="630" width="100" height="40" as="geometry" />
        </mxCell>
        <mxCell id="oJbWSEmWCzC-VZwffRQP-55" value="Booking" style="whiteSpace=wrap;html=1;align=center;" parent="1" vertex="1">
          <mxGeometry x="440" y="350" width="100" height="40" as="geometry" />
        </mxCell>
        <mxCell id="oJbWSEmWCzC-VZwffRQP-56" value="Order" style="whiteSpace=wrap;html=1;align=center;" parent="1" vertex="1">
          <mxGeometry x="590" y="610" width="100" height="40" as="geometry" />
        </mxCell>
        <mxCell id="oJbWSEmWCzC-VZwffRQP-57" value="Address" style="whiteSpace=wrap;html=1;align=center;" parent="1" vertex="1">
          <mxGeometry x="590" y="350" width="100" height="40" as="geometry" />
        </mxCell>
        <mxCell id="oJbWSEmWCzC-VZwffRQP-58" value="status" style="ellipse;whiteSpace=wrap;html=1;align=center;" parent="1" vertex="1">
          <mxGeometry x="750" y="560" width="100" height="40" as="geometry" />
        </mxCell>
        <mxCell id="oJbWSEmWCzC-VZwffRQP-61" value="booking_id" style="ellipse;whiteSpace=wrap;html=1;align=center;" parent="1" vertex="1">
          <mxGeometry x="750" y="600" width="100" height="40" as="geometry" />
        </mxCell>
        <mxCell id="oJbWSEmWCzC-VZwffRQP-62" value="order_id" style="ellipse;whiteSpace=wrap;html=1;align=center;" parent="1" vertex="1">
          <mxGeometry x="470" y="680" width="100" height="40" as="geometry" />
        </mxCell>
        <mxCell id="oJbWSEmWCzC-VZwffRQP-63" value="total" style="ellipse;whiteSpace=wrap;html=1;align=center;" parent="1" vertex="1">
          <mxGeometry x="500" y="740" width="100" height="40" as="geometry" />
        </mxCell>
        <mxCell id="oJbWSEmWCzC-VZwffRQP-65" value="address_id" style="ellipse;whiteSpace=wrap;html=1;align=center;" parent="1" vertex="1">
          <mxGeometry x="710" y="660" width="100" height="40" as="geometry" />
        </mxCell>
        <mxCell id="oJbWSEmWCzC-VZwffRQP-66" value="time_stamp" style="ellipse;whiteSpace=wrap;html=1;align=center;" parent="1" vertex="1">
          <mxGeometry x="650" y="700" width="100" height="40" as="geometry" />
        </mxCell>
        <mxCell id="oJbWSEmWCzC-VZwffRQP-67" value="reserved" style="ellipse;whiteSpace=wrap;html=1;align=center;" parent="1" vertex="1">
          <mxGeometry x="740" y="500" width="100" height="40" as="geometry" />
        </mxCell>
        <mxCell id="oJbWSEmWCzC-VZwffRQP-68" value="city" style="ellipse;whiteSpace=wrap;html=1;align=center;" parent="1" vertex="1">
          <mxGeometry x="750" y="260" width="100" height="40" as="geometry" />
        </mxCell>
        <mxCell id="oJbWSEmWCzC-VZwffRQP-69" value="street" style="ellipse;whiteSpace=wrap;html=1;align=center;" parent="1" vertex="1">
          <mxGeometry x="680" y="220" width="100" height="40" as="geometry" />
        </mxCell>
        <mxCell id="oJbWSEmWCzC-VZwffRQP-70" value="house_no" style="ellipse;whiteSpace=wrap;html=1;align=center;" parent="1" vertex="1">
          <mxGeometry x="740" y="320" width="100" height="40" as="geometry" />
        </mxCell>
        <mxCell id="oJbWSEmWCzC-VZwffRQP-71" value="address_id" style="ellipse;whiteSpace=wrap;html=1;align=center;" parent="1" vertex="1">
          <mxGeometry x="580" y="220" width="100" height="40" as="geometry" />
        </mxCell>
        <mxCell id="oJbWSEmWCzC-VZwffRQP-72" value="pincode" style="ellipse;whiteSpace=wrap;html=1;align=center;" parent="1" vertex="1">
          <mxGeometry x="740" y="380" width="100" height="40" as="geometry" />
        </mxCell>
        <mxCell id="oJbWSEmWCzC-VZwffRQP-73" value="mobile_no" style="ellipse;whiteSpace=wrap;html=1;align=center;" parent="1" vertex="1">
          <mxGeometry x="690" y="430" width="100" height="40" as="geometry" />
        </mxCell>
        <mxCell id="oJbWSEmWCzC-VZwffRQP-77" style="edgeStyle=orthogonalEdgeStyle;rounded=0;orthogonalLoop=1;jettySize=auto;html=1;exitX=0.5;exitY=1;exitDx=0;exitDy=0;" parent="1" source="oJbWSEmWCzC-VZwffRQP-55" target="oJbWSEmWCzC-VZwffRQP-55" edge="1">
          <mxGeometry relative="1" as="geometry" />
        </mxCell>
        <mxCell id="oJbWSEmWCzC-VZwffRQP-78" value="booking_id" style="ellipse;whiteSpace=wrap;html=1;align=center;" parent="1" vertex="1">
          <mxGeometry x="480" y="250" width="100" height="40" as="geometry" />
        </mxCell>
        <mxCell id="oJbWSEmWCzC-VZwffRQP-79" value="table_code" style="ellipse;whiteSpace=wrap;html=1;align=center;" parent="1" vertex="1">
          <mxGeometry x="220" y="260" width="100" height="40" as="geometry" />
        </mxCell>
        <mxCell id="oJbWSEmWCzC-VZwffRQP-80" value="booking_status" style="ellipse;whiteSpace=wrap;html=1;align=center;" parent="1" vertex="1">
          <mxGeometry x="310" y="220" width="100" height="40" as="geometry" />
        </mxCell>
        <mxCell id="oJbWSEmWCzC-VZwffRQP-82" value="seat_capacity" style="ellipse;whiteSpace=wrap;html=1;align=center;" parent="1" vertex="1">
          <mxGeometry x="400" y="190" width="100" height="40" as="geometry" />
        </mxCell>
        <mxCell id="oJbWSEmWCzC-VZwffRQP-83" value="" style="endArrow=none;html=1;rounded=0;exitX=1;exitY=0.5;exitDx=0;exitDy=0;entryX=0.25;entryY=1;entryDx=0;entryDy=0;" parent="1" source="oJbWSEmWCzC-VZwffRQP-63" edge="1" target="oJbWSEmWCzC-VZwffRQP-56">
          <mxGeometry relative="1" as="geometry">
            <mxPoint x="430" y="770" as="sourcePoint" />
            <mxPoint x="510" y="550" as="targetPoint" />
          </mxGeometry>
        </mxCell>
        <mxCell id="oJbWSEmWCzC-VZwffRQP-84" value="" style="endArrow=none;html=1;rounded=0;exitX=1;exitY=0.5;exitDx=0;exitDy=0;entryX=0.25;entryY=1;entryDx=0;entryDy=0;" parent="1" source="oJbWSEmWCzC-VZwffRQP-62" target="oJbWSEmWCzC-VZwffRQP-56" edge="1">
          <mxGeometry relative="1" as="geometry">
            <mxPoint x="530" y="770" as="sourcePoint" />
            <mxPoint x="590" y="630" as="targetPoint" />
          </mxGeometry>
        </mxCell>
        <mxCell id="oJbWSEmWCzC-VZwffRQP-85" value="" style="endArrow=none;html=1;rounded=0;exitX=0;exitY=1;exitDx=0;exitDy=0;entryX=1;entryY=0.5;entryDx=0;entryDy=0;" parent="1" source="oJbWSEmWCzC-VZwffRQP-67" edge="1" target="oJbWSEmWCzC-VZwffRQP-56">
          <mxGeometry relative="1" as="geometry">
            <mxPoint x="630" y="730" as="sourcePoint" />
            <mxPoint x="640" y="770" as="targetPoint" />
          </mxGeometry>
        </mxCell>
        <mxCell id="oJbWSEmWCzC-VZwffRQP-86" value="" style="endArrow=none;html=1;rounded=0;exitX=-0.011;exitY=0.744;exitDx=0;exitDy=0;entryX=1;entryY=0.5;entryDx=0;entryDy=0;exitPerimeter=0;" parent="1" source="oJbWSEmWCzC-VZwffRQP-58" target="oJbWSEmWCzC-VZwffRQP-56" edge="1">
          <mxGeometry relative="1" as="geometry">
            <mxPoint x="640" y="740" as="sourcePoint" />
            <mxPoint x="625" y="790" as="targetPoint" />
          </mxGeometry>
        </mxCell>
        <mxCell id="oJbWSEmWCzC-VZwffRQP-87" value="" style="endArrow=none;html=1;rounded=0;exitX=-0.038;exitY=0.306;exitDx=0;exitDy=0;exitPerimeter=0;entryX=1;entryY=0.5;entryDx=0;entryDy=0;" parent="1" source="oJbWSEmWCzC-VZwffRQP-61" edge="1" target="oJbWSEmWCzC-VZwffRQP-56">
          <mxGeometry relative="1" as="geometry">
            <mxPoint x="650" y="750" as="sourcePoint" />
            <mxPoint x="700" y="612" as="targetPoint" />
          </mxGeometry>
        </mxCell>
        <mxCell id="oJbWSEmWCzC-VZwffRQP-88" value="" style="endArrow=none;html=1;rounded=0;exitX=0.418;exitY=-0.006;exitDx=0;exitDy=0;exitPerimeter=0;entryX=0.827;entryY=1.033;entryDx=0;entryDy=0;entryPerimeter=0;" parent="1" edge="1" target="oJbWSEmWCzC-VZwffRQP-56" source="oJbWSEmWCzC-VZwffRQP-65">
          <mxGeometry relative="1" as="geometry">
            <mxPoint x="680" y="840" as="sourcePoint" />
            <mxPoint x="640" y="810" as="targetPoint" />
          </mxGeometry>
        </mxCell>
        <mxCell id="oJbWSEmWCzC-VZwffRQP-89" value="" style="endArrow=none;html=1;rounded=0;entryX=0.75;entryY=1;entryDx=0;entryDy=0;exitX=0.631;exitY=-0.022;exitDx=0;exitDy=0;exitPerimeter=0;" parent="1" source="oJbWSEmWCzC-VZwffRQP-66" target="oJbWSEmWCzC-VZwffRQP-56" edge="1">
          <mxGeometry relative="1" as="geometry">
            <mxPoint x="590" y="830" as="sourcePoint" />
            <mxPoint x="655" y="820" as="targetPoint" />
          </mxGeometry>
        </mxCell>
        <mxCell id="oJbWSEmWCzC-VZwffRQP-90" value="" style="endArrow=none;html=1;rounded=0;entryX=0.5;entryY=1;entryDx=0;entryDy=0;exitX=0.985;exitY=0.238;exitDx=0;exitDy=0;exitPerimeter=0;" parent="1" source="oJbWSEmWCzC-VZwffRQP-47" target="oJbWSEmWCzC-VZwffRQP-44" edge="1">
          <mxGeometry relative="1" as="geometry">
            <mxPoint x="580" y="980" as="sourcePoint" />
            <mxPoint x="660" y="910" as="targetPoint" />
          </mxGeometry>
        </mxCell>
        <mxCell id="oJbWSEmWCzC-VZwffRQP-91" value="" style="endArrow=none;html=1;rounded=0;exitX=0.5;exitY=1;exitDx=0;exitDy=0;entryX=1;entryY=0.5;entryDx=0;entryDy=0;" parent="1" source="oJbWSEmWCzC-VZwffRQP-46" target="oJbWSEmWCzC-VZwffRQP-44" edge="1">
          <mxGeometry relative="1" as="geometry">
            <mxPoint x="200" y="880" as="sourcePoint" />
            <mxPoint x="660" y="900" as="targetPoint" />
          </mxGeometry>
        </mxCell>
        <mxCell id="oJbWSEmWCzC-VZwffRQP-92" value="" style="endArrow=none;html=1;rounded=0;entryX=1;entryY=0.5;entryDx=0;entryDy=0;" parent="1" source="oJbWSEmWCzC-VZwffRQP-45" edge="1" target="oJbWSEmWCzC-VZwffRQP-44">
          <mxGeometry relative="1" as="geometry">
            <mxPoint x="810" y="910" as="sourcePoint" />
            <mxPoint x="320" y="620" as="targetPoint" />
          </mxGeometry>
        </mxCell>
        <mxCell id="oJbWSEmWCzC-VZwffRQP-93" value="" style="endArrow=none;html=1;rounded=0;entryX=0.5;entryY=1;entryDx=0;entryDy=0;" parent="1" source="oJbWSEmWCzC-VZwffRQP-48" target="oJbWSEmWCzC-VZwffRQP-44" edge="1">
          <mxGeometry relative="1" as="geometry">
            <mxPoint x="220" y="900" as="sourcePoint" />
            <mxPoint x="300" y="980" as="targetPoint" />
          </mxGeometry>
        </mxCell>
        <mxCell id="oJbWSEmWCzC-VZwffRQP-94" value="" style="endArrow=none;html=1;rounded=0;exitX=0.4;exitY=0;exitDx=0;exitDy=0;exitPerimeter=0;entryX=0.5;entryY=1;entryDx=0;entryDy=0;" parent="1" source="oJbWSEmWCzC-VZwffRQP-49" target="oJbWSEmWCzC-VZwffRQP-44" edge="1">
          <mxGeometry relative="1" as="geometry">
            <mxPoint x="230" y="910" as="sourcePoint" />
            <mxPoint x="700" y="960" as="targetPoint" />
          </mxGeometry>
        </mxCell>
        <mxCell id="oJbWSEmWCzC-VZwffRQP-95" value="" style="endArrow=none;html=1;rounded=0;exitX=1;exitY=1;exitDx=0;exitDy=0;entryX=0;entryY=0.5;entryDx=0;entryDy=0;" parent="1" source="oJbWSEmWCzC-VZwffRQP-52" edge="1" target="oJbWSEmWCzC-VZwffRQP-50">
          <mxGeometry relative="1" as="geometry">
            <mxPoint x="320" y="1050" as="sourcePoint" />
            <mxPoint x="670" y="990" as="targetPoint" />
          </mxGeometry>
        </mxCell>
        <mxCell id="oJbWSEmWCzC-VZwffRQP-96" value="" style="endArrow=none;html=1;rounded=0;entryX=0;entryY=0.5;entryDx=0;entryDy=0;" parent="1" source="oJbWSEmWCzC-VZwffRQP-51" target="oJbWSEmWCzC-VZwffRQP-50" edge="1">
          <mxGeometry relative="1" as="geometry">
            <mxPoint x="595" y="1056" as="sourcePoint" />
            <mxPoint x="290" y="700" as="targetPoint" />
          </mxGeometry>
        </mxCell>
        <mxCell id="zD9h97p-985Ib3SUe7in-1" value="" style="endArrow=none;html=1;rounded=0;exitX=-0.022;exitY=0.744;exitDx=0;exitDy=0;exitPerimeter=0;entryX=0.604;entryY=0.022;entryDx=0;entryDy=0;entryPerimeter=0;" edge="1" parent="1" source="oJbWSEmWCzC-VZwffRQP-68" target="oJbWSEmWCzC-VZwffRQP-57">
          <mxGeometry relative="1" as="geometry">
            <mxPoint x="296" y="481" as="sourcePoint" />
            <mxPoint x="258" y="547" as="targetPoint" />
          </mxGeometry>
        </mxCell>
        <mxCell id="zD9h97p-985Ib3SUe7in-2" value="" style="endArrow=none;html=1;rounded=0;entryX=0.5;entryY=0;entryDx=0;entryDy=0;" edge="1" parent="1" source="oJbWSEmWCzC-VZwffRQP-69" target="oJbWSEmWCzC-VZwffRQP-57">
          <mxGeometry relative="1" as="geometry">
            <mxPoint x="700" y="230" as="sourcePoint" />
            <mxPoint x="670" y="291" as="targetPoint" />
          </mxGeometry>
        </mxCell>
        <mxCell id="zD9h97p-985Ib3SUe7in-3" value="" style="endArrow=none;html=1;rounded=0;exitX=0;exitY=0.5;exitDx=0;exitDy=0;entryX=1;entryY=0.5;entryDx=0;entryDy=0;" edge="1" parent="1" source="oJbWSEmWCzC-VZwffRQP-72" target="oJbWSEmWCzC-VZwffRQP-57">
          <mxGeometry relative="1" as="geometry">
            <mxPoint x="758" y="270" as="sourcePoint" />
            <mxPoint x="680" y="301" as="targetPoint" />
          </mxGeometry>
        </mxCell>
        <mxCell id="zD9h97p-985Ib3SUe7in-4" value="" style="endArrow=none;html=1;rounded=0;exitX=0.5;exitY=1;exitDx=0;exitDy=0;entryX=0.5;entryY=0;entryDx=0;entryDy=0;" edge="1" parent="1" source="oJbWSEmWCzC-VZwffRQP-71" target="oJbWSEmWCzC-VZwffRQP-57">
          <mxGeometry relative="1" as="geometry">
            <mxPoint x="620" y="230" as="sourcePoint" />
            <mxPoint x="630" y="270" as="targetPoint" />
          </mxGeometry>
        </mxCell>
        <mxCell id="zD9h97p-985Ib3SUe7in-5" value="" style="endArrow=none;html=1;rounded=0;exitX=0;exitY=0.5;exitDx=0;exitDy=0;entryX=1;entryY=0.5;entryDx=0;entryDy=0;" edge="1" parent="1" source="oJbWSEmWCzC-VZwffRQP-70" target="oJbWSEmWCzC-VZwffRQP-57">
          <mxGeometry relative="1" as="geometry">
            <mxPoint x="778" y="290" as="sourcePoint" />
            <mxPoint x="700" y="321" as="targetPoint" />
          </mxGeometry>
        </mxCell>
        <mxCell id="zD9h97p-985Ib3SUe7in-6" value="" style="endArrow=none;html=1;rounded=0;entryX=0.92;entryY=1.033;entryDx=0;entryDy=0;exitX=0;exitY=0;exitDx=0;exitDy=0;entryPerimeter=0;" edge="1" parent="1" source="oJbWSEmWCzC-VZwffRQP-73" target="oJbWSEmWCzC-VZwffRQP-57">
          <mxGeometry relative="1" as="geometry">
            <mxPoint x="770" y="390" as="sourcePoint" />
            <mxPoint x="600" y="360" as="targetPoint" />
          </mxGeometry>
        </mxCell>
        <mxCell id="zD9h97p-985Ib3SUe7in-7" value="" style="endArrow=none;html=1;rounded=0;entryX=0.5;entryY=0;entryDx=0;entryDy=0;exitX=1;exitY=1;exitDx=0;exitDy=0;" edge="1" parent="1" source="oJbWSEmWCzC-VZwffRQP-79" target="oJbWSEmWCzC-VZwffRQP-55">
          <mxGeometry relative="1" as="geometry">
            <mxPoint x="330" y="310" as="sourcePoint" />
            <mxPoint x="635" y="290" as="targetPoint" />
          </mxGeometry>
        </mxCell>
        <mxCell id="zD9h97p-985Ib3SUe7in-8" value="" style="endArrow=none;html=1;rounded=0;exitX=0;exitY=1;exitDx=0;exitDy=0;entryX=0.5;entryY=0;entryDx=0;entryDy=0;" edge="1" parent="1" source="oJbWSEmWCzC-VZwffRQP-78" target="oJbWSEmWCzC-VZwffRQP-55">
          <mxGeometry relative="1" as="geometry">
            <mxPoint x="763" y="566" as="sourcePoint" />
            <mxPoint x="480" y="340" as="targetPoint" />
          </mxGeometry>
        </mxCell>
        <mxCell id="zD9h97p-985Ib3SUe7in-10" value="" style="endArrow=none;html=1;rounded=0;exitX=0.5;exitY=1;exitDx=0;exitDy=0;" edge="1" parent="1" source="oJbWSEmWCzC-VZwffRQP-82" target="oJbWSEmWCzC-VZwffRQP-55">
          <mxGeometry relative="1" as="geometry">
            <mxPoint x="443" y="240" as="sourcePoint" />
            <mxPoint x="660" y="550" as="targetPoint" />
          </mxGeometry>
        </mxCell>
        <mxCell id="zD9h97p-985Ib3SUe7in-11" value="" style="endArrow=none;html=1;rounded=0;exitX=0.5;exitY=1;exitDx=0;exitDy=0;entryX=0.5;entryY=0;entryDx=0;entryDy=0;" edge="1" parent="1" source="oJbWSEmWCzC-VZwffRQP-80" target="oJbWSEmWCzC-VZwffRQP-55">
          <mxGeometry relative="1" as="geometry">
            <mxPoint x="755" y="514" as="sourcePoint" />
            <mxPoint x="711" y="519" as="targetPoint" />
          </mxGeometry>
        </mxCell>
        <mxCell id="zD9h97p-985Ib3SUe7in-13" value="Role" style="ellipse;whiteSpace=wrap;html=1;align=center;" vertex="1" parent="1">
          <mxGeometry x="30" y="480" width="100" height="40" as="geometry" />
        </mxCell>
        <mxCell id="zD9h97p-985Ib3SUe7in-14" value="" style="endArrow=none;html=1;rounded=0;exitX=0;exitY=0.5;exitDx=0;exitDy=0;" edge="1" parent="1" source="oJbWSEmWCzC-VZwffRQP-2" target="zD9h97p-985Ib3SUe7in-13">
          <mxGeometry relative="1" as="geometry">
            <mxPoint x="110" y="440" as="sourcePoint" />
            <mxPoint x="328" y="92" as="targetPoint" />
          </mxGeometry>
        </mxCell>
        <mxCell id="zD9h97p-985Ib3SUe7in-23" value="has" style="shape=rhombus;html=1;dashed=0;whiteSpace=wrap;perimeter=rhombusPerimeter;" vertex="1" parent="1">
          <mxGeometry x="610" y="785" width="60" height="50" as="geometry" />
        </mxCell>
        <mxCell id="zD9h97p-985Ib3SUe7in-29" value="" style="endArrow=none;html=1;rounded=0;exitX=0.5;exitY=0;exitDx=0;exitDy=0;entryX=0.5;entryY=1;entryDx=0;entryDy=0;" edge="1" parent="1" source="zD9h97p-985Ib3SUe7in-23" target="oJbWSEmWCzC-VZwffRQP-56">
          <mxGeometry relative="1" as="geometry">
            <mxPoint x="260" y="790" as="sourcePoint" />
            <mxPoint x="590" y="590" as="targetPoint" />
            <Array as="points">
              <mxPoint x="640" y="730" />
            </Array>
          </mxGeometry>
        </mxCell>
        <mxCell id="zD9h97p-985Ib3SUe7in-31" value="1" style="edgeLabel;html=1;align=center;verticalAlign=middle;resizable=0;points=[];fontSize=14;" vertex="1" connectable="0" parent="zD9h97p-985Ib3SUe7in-29">
          <mxGeometry x="0.7619" y="2" relative="1" as="geometry">
            <mxPoint as="offset" />
          </mxGeometry>
        </mxCell>
        <mxCell id="zD9h97p-985Ib3SUe7in-33" value="" style="endArrow=none;html=1;rounded=0;entryX=0.5;entryY=0;entryDx=0;entryDy=0;exitX=0.5;exitY=1;exitDx=0;exitDy=0;" edge="1" parent="1" source="zD9h97p-985Ib3SUe7in-23" target="oJbWSEmWCzC-VZwffRQP-44">
          <mxGeometry relative="1" as="geometry">
            <mxPoint x="680" y="810" as="sourcePoint" />
            <mxPoint x="630" y="745" as="targetPoint" />
          </mxGeometry>
        </mxCell>
        <mxCell id="zD9h97p-985Ib3SUe7in-37" value="1" style="edgeLabel;html=1;align=center;verticalAlign=middle;resizable=0;points=[];fontSize=14;" vertex="1" connectable="0" parent="zD9h97p-985Ib3SUe7in-33">
          <mxGeometry x="0.7825" relative="1" as="geometry">
            <mxPoint x="-290" y="-202" as="offset" />
          </mxGeometry>
        </mxCell>
        <mxCell id="zD9h97p-985Ib3SUe7in-36" value="M" style="edgeLabel;html=1;align=center;verticalAlign=middle;resizable=0;points=[];fontSize=14;" vertex="1" connectable="0" parent="zD9h97p-985Ib3SUe7in-33">
          <mxGeometry x="-0.7501" y="-2" relative="1" as="geometry">
            <mxPoint x="2" y="46" as="offset" />
          </mxGeometry>
        </mxCell>
        <mxCell id="zD9h97p-985Ib3SUe7in-38" value="has" style="shape=rhombus;html=1;dashed=0;whiteSpace=wrap;perimeter=rhombusPerimeter;" vertex="1" parent="1">
          <mxGeometry x="410" y="905" width="60" height="50" as="geometry" />
        </mxCell>
        <mxCell id="zD9h97p-985Ib3SUe7in-41" value="" style="endArrow=none;html=1;rounded=0;entryX=1;entryY=0.5;entryDx=0;entryDy=0;exitX=0;exitY=0.5;exitDx=0;exitDy=0;" edge="1" parent="1" source="oJbWSEmWCzC-VZwffRQP-44" target="zD9h97p-985Ib3SUe7in-38">
          <mxGeometry relative="1" as="geometry">
            <mxPoint x="310" y="910" as="sourcePoint" />
            <mxPoint x="350" y="878.89" as="targetPoint" />
          </mxGeometry>
        </mxCell>
        <mxCell id="zD9h97p-985Ib3SUe7in-44" value="M" style="edgeLabel;html=1;align=center;verticalAlign=middle;resizable=0;points=[];fontSize=14;" vertex="1" connectable="0" parent="zD9h97p-985Ib3SUe7in-41">
          <mxGeometry x="-0.4259" y="-2" relative="1" as="geometry">
            <mxPoint x="-2" as="offset" />
          </mxGeometry>
        </mxCell>
        <mxCell id="zD9h97p-985Ib3SUe7in-42" value="" style="endArrow=none;html=1;rounded=0;exitX=0.5;exitY=0;exitDx=0;exitDy=0;entryX=1;entryY=0.5;entryDx=0;entryDy=0;" edge="1" parent="1" source="zD9h97p-985Ib3SUe7in-38" target="oJbWSEmWCzC-VZwffRQP-10">
          <mxGeometry relative="1" as="geometry">
            <mxPoint x="260" y="770" as="sourcePoint" />
            <mxPoint x="390" y="820" as="targetPoint" />
            <Array as="points">
              <mxPoint x="410" y="930" />
            </Array>
          </mxGeometry>
        </mxCell>
        <mxCell id="zD9h97p-985Ib3SUe7in-43" value="1" style="edgeLabel;html=1;align=center;verticalAlign=middle;resizable=0;points=[];fontSize=14;" vertex="1" connectable="0" parent="zD9h97p-985Ib3SUe7in-42">
          <mxGeometry x="0.6842" relative="1" as="geometry">
            <mxPoint as="offset" />
          </mxGeometry>
        </mxCell>
        <mxCell id="zD9h97p-985Ib3SUe7in-54" value="has" style="shape=rhombus;html=1;dashed=0;whiteSpace=wrap;perimeter=rhombusPerimeter;" vertex="1" parent="1">
          <mxGeometry x="610" y="490" width="60" height="50" as="geometry" />
        </mxCell>
        <mxCell id="zD9h97p-985Ib3SUe7in-61" value="" style="endArrow=none;html=1;rounded=0;entryX=0.5;entryY=1;entryDx=0;entryDy=0;" edge="1" parent="1" target="oJbWSEmWCzC-VZwffRQP-57">
          <mxGeometry relative="1" as="geometry">
            <mxPoint x="640" y="490" as="sourcePoint" />
            <mxPoint x="560" y="370" as="targetPoint" />
          </mxGeometry>
        </mxCell>
        <mxCell id="zD9h97p-985Ib3SUe7in-63" value="has" style="shape=rhombus;html=1;dashed=0;whiteSpace=wrap;perimeter=rhombusPerimeter;" vertex="1" parent="1">
          <mxGeometry x="380" y="800" width="60" height="50" as="geometry" />
        </mxCell>
        <mxCell id="zD9h97p-985Ib3SUe7in-65" value="" style="endArrow=none;html=1;rounded=0;entryX=1;entryY=0.5;entryDx=0;entryDy=0;exitX=0.099;exitY=0.022;exitDx=0;exitDy=0;exitPerimeter=0;" edge="1" parent="1" source="oJbWSEmWCzC-VZwffRQP-44" target="zD9h97p-985Ib3SUe7in-63">
          <mxGeometry relative="1" as="geometry">
            <mxPoint x="600" y="900" as="sourcePoint" />
            <mxPoint x="440" y="790" as="targetPoint" />
            <Array as="points">
              <mxPoint x="600" y="825" />
            </Array>
          </mxGeometry>
        </mxCell>
        <mxCell id="zD9h97p-985Ib3SUe7in-67" value="M" style="edgeLabel;html=1;align=center;verticalAlign=middle;resizable=0;points=[];fontSize=14;" vertex="1" connectable="0" parent="1">
          <mxGeometry x="650" y="899.8888888888889" as="geometry">
            <mxPoint x="-51" y="-15" as="offset" />
          </mxGeometry>
        </mxCell>
        <mxCell id="zD9h97p-985Ib3SUe7in-71" value="" style="endArrow=none;html=1;rounded=0;entryX=0.5;entryY=1;entryDx=0;entryDy=0;exitX=0.5;exitY=0;exitDx=0;exitDy=0;" edge="1" parent="1" source="oJbWSEmWCzC-VZwffRQP-56" target="zD9h97p-985Ib3SUe7in-54">
          <mxGeometry relative="1" as="geometry">
            <mxPoint x="350" y="490" as="sourcePoint" />
            <mxPoint x="510" y="490" as="targetPoint" />
            <Array as="points">
              <mxPoint x="640" y="570" />
            </Array>
          </mxGeometry>
        </mxCell>
        <mxCell id="zD9h97p-985Ib3SUe7in-73" value="has" style="shape=rhombus;html=1;dashed=0;whiteSpace=wrap;perimeter=rhombusPerimeter;" vertex="1" parent="1">
          <mxGeometry x="250" y="555" width="60" height="50" as="geometry" />
        </mxCell>
        <mxCell id="zD9h97p-985Ib3SUe7in-74" value="" style="endArrow=none;html=1;rounded=0;entryX=0.5;entryY=1;entryDx=0;entryDy=0;entryPerimeter=0;" edge="1" parent="1" target="oJbWSEmWCzC-VZwffRQP-2">
          <mxGeometry relative="1" as="geometry">
            <mxPoint x="279.44" y="555" as="sourcePoint" />
            <mxPoint x="279.44" y="455" as="targetPoint" />
          </mxGeometry>
        </mxCell>
        <mxCell id="zD9h97p-985Ib3SUe7in-75" value="" style="endArrow=none;html=1;rounded=0;entryX=0.5;entryY=1;entryDx=0;entryDy=0;" edge="1" parent="1" source="oJbWSEmWCzC-VZwffRQP-50" target="zD9h97p-985Ib3SUe7in-73">
          <mxGeometry relative="1" as="geometry">
            <mxPoint x="270" y="670" as="sourcePoint" />
            <mxPoint x="279" y="610" as="targetPoint" />
          </mxGeometry>
        </mxCell>
        <mxCell id="zD9h97p-985Ib3SUe7in-77" value="has" style="shape=rhombus;html=1;dashed=0;whiteSpace=wrap;perimeter=rhombusPerimeter;" vertex="1" parent="1">
          <mxGeometry x="370" y="550" width="60" height="50" as="geometry" />
        </mxCell>
        <mxCell id="zD9h97p-985Ib3SUe7in-78" value="" style="endArrow=none;html=1;rounded=0;entryX=0.5;entryY=1;entryDx=0;entryDy=0;" edge="1" parent="1" target="oJbWSEmWCzC-VZwffRQP-55">
          <mxGeometry relative="1" as="geometry">
            <mxPoint x="490" y="480" as="sourcePoint" />
            <mxPoint x="439.5" y="375" as="targetPoint" />
          </mxGeometry>
        </mxCell>
        <mxCell id="zD9h97p-985Ib3SUe7in-81" value="1" style="edgeLabel;html=1;align=center;verticalAlign=middle;resizable=0;points=[];fontSize=14;" vertex="1" connectable="0" parent="1">
          <mxGeometry x="370" y="709.9966666666668" as="geometry">
            <mxPoint x="81" y="-292" as="offset" />
          </mxGeometry>
        </mxCell>
        <mxCell id="zD9h97p-985Ib3SUe7in-82" value="1" style="edgeLabel;html=1;align=center;verticalAlign=middle;resizable=0;points=[];fontSize=14;" vertex="1" connectable="0" parent="1">
          <mxGeometry x="560" y="619.9966666666668" as="geometry">
            <mxPoint x="27" y="-25" as="offset" />
          </mxGeometry>
        </mxCell>
        <mxCell id="zD9h97p-985Ib3SUe7in-84" value="1" style="text;html=1;align=center;verticalAlign=middle;resizable=0;points=[];autosize=1;strokeColor=none;fillColor=none;fontSize=14;" vertex="1" parent="1">
          <mxGeometry x="235" y="510" width="30" height="30" as="geometry" />
        </mxCell>
        <mxCell id="zD9h97p-985Ib3SUe7in-85" value="1" style="text;html=1;align=center;verticalAlign=middle;resizable=0;points=[];autosize=1;strokeColor=none;fillColor=none;fontSize=14;" vertex="1" parent="1">
          <mxGeometry x="275" y="638" width="30" height="30" as="geometry" />
        </mxCell>
        <mxCell id="zD9h97p-985Ib3SUe7in-86" value="1" style="text;html=1;align=center;verticalAlign=middle;resizable=0;points=[];autosize=1;strokeColor=none;fillColor=none;fontSize=14;" vertex="1" parent="1">
          <mxGeometry x="600" y="400" width="30" height="30" as="geometry" />
        </mxCell>
        <mxCell id="zD9h97p-985Ib3SUe7in-87" value="" style="endArrow=none;html=1;rounded=0;exitX=1;exitY=0.5;exitDx=0;exitDy=0;entryX=0.5;entryY=0;entryDx=0;entryDy=0;" edge="1" parent="1" source="oJbWSEmWCzC-VZwffRQP-2" target="zD9h97p-985Ib3SUe7in-77">
          <mxGeometry relative="1" as="geometry">
            <mxPoint x="300" y="490" as="sourcePoint" />
            <mxPoint x="440" y="510" as="targetPoint" />
            <Array as="points">
              <mxPoint x="400" y="485" />
            </Array>
          </mxGeometry>
        </mxCell>
        <mxCell id="zD9h97p-985Ib3SUe7in-90" value="" style="endArrow=none;html=1;rounded=0;exitX=0.5;exitY=1;exitDx=0;exitDy=0;" edge="1" parent="1" source="zD9h97p-985Ib3SUe7in-77">
          <mxGeometry relative="1" as="geometry">
            <mxPoint x="400" y="630" as="sourcePoint" />
            <mxPoint x="590" y="630" as="targetPoint" />
            <Array as="points">
              <mxPoint x="400" y="630" />
            </Array>
          </mxGeometry>
        </mxCell>
        <mxCell id="zD9h97p-985Ib3SUe7in-91" value="has" style="shape=rhombus;html=1;dashed=0;whiteSpace=wrap;perimeter=rhombusPerimeter;" vertex="1" parent="1">
          <mxGeometry x="460" y="480" width="60" height="50" as="geometry" />
        </mxCell>
        <mxCell id="zD9h97p-985Ib3SUe7in-93" value="" style="endArrow=none;html=1;rounded=0;entryX=0.5;entryY=1;entryDx=0;entryDy=0;exitX=0.101;exitY=-0.059;exitDx=0;exitDy=0;exitPerimeter=0;" edge="1" parent="1" source="oJbWSEmWCzC-VZwffRQP-56" target="zD9h97p-985Ib3SUe7in-91">
          <mxGeometry relative="1" as="geometry">
            <mxPoint x="650" y="620" as="sourcePoint" />
            <mxPoint x="650" y="550" as="targetPoint" />
            <Array as="points">
              <mxPoint x="600" y="560" />
              <mxPoint x="490" y="560" />
            </Array>
          </mxGeometry>
        </mxCell>
        <mxCell id="zD9h97p-985Ib3SUe7in-95" value="M" style="text;html=1;align=center;verticalAlign=middle;resizable=0;points=[];autosize=1;strokeColor=none;fillColor=none;fontSize=14;" vertex="1" parent="1">
          <mxGeometry x="530" y="600" width="40" height="30" as="geometry" />
        </mxCell>
        <mxCell id="zD9h97p-985Ib3SUe7in-96" value="1" style="text;html=1;align=center;verticalAlign=middle;resizable=0;points=[];autosize=1;strokeColor=none;fillColor=none;fontSize=14;" vertex="1" parent="1">
          <mxGeometry x="340" y="450" width="30" height="30" as="geometry" />
        </mxCell>
      </root>
    </mxGraphModel>
  </diagram>
</mxfile>
